<svg version="1" xmlns="http://www.w3.org/2000/svg" width="682.667" height="682.667" viewBox="0 0 512.000000 512.000000"><path d="M259 45.7c-13.5.8-30.5 2.7-38.1 4.3-52 11.1-96.9 68.2-115.4 146.5-8.3 35-7.3 73.4 3 120.9 6.7 30.6 16.3 56.2 38.5 102.6 6.7 14 13.8 30.2 15.8 36 3.6 10.3 3.7 10.8 3.7 26 0 8.5-.4 18.8-.9 22.7l-.8 7.3h234.3l-.8-5.3c-1.6-10.8-1-14.6 3.5-22.3 4.9-8.2 8.7-18.6 10.1-27 .7-4.6.5-8.1-.9-15.9-4.1-22.5-3.8-26 3.1-28.4 7.5-2.7 16.8-8.2 20.4-12.2 4.3-4.8 5.1-8.9 3-16.8-3.1-12.2-19.2-52.3-31.8-79.5l-4.1-8.8 2.8-7.7c7.6-20.8 8.8-28.2 7.6-46.5-3.6-53.4-21.3-115.4-41.7-145.8-5.1-7.5-15.3-18.4-23-24.5-17.8-13.9-44-23.5-68.3-24.8-5.2-.3-10.8-.7-12.5-.8-1.6-.1-5-.1-7.5 0zm-26.6 78.9c1.1.4-.3 2.6-6.1 9.2-20.2 23.2-35 49.3-46.4 82.1-5.2 15.1-5.2 15.1-8.7 2.1-3.4-12.5-4.5-22.2-3.9-34.3 1.5-30 17-51.4 41.9-58.1 5.3-1.5 20.3-2.1 23.2-1zm23.5 7.4c4.6 2.3 11.6 6.2 15.5 8.8 9 5.9 24.7 21.6 30.8 30.7l4.8 7-2.9 11c-8.8 33.1-24.1 63.8-44.8 89.7-8 10.1-18.7 20.8-20.7 20.8-2.7 0-14.7-7.4-23-14-11.9-9.6-22.1-21.6-30.8-36.2l-4-6.7 3.1-11.1c7.7-27.5 22.2-57.3 38.9-79.9 7-9.6 21-24.1 23.1-24.1 1 0 5.5 1.8 10 4zm65.7 77.8c4.1 12.6 5.7 24.2 5.1 37.2-.9 20.3-6.3 33.7-18.1 45.6-10.5 10.5-22.4 15.4-37.2 15.4-6.6 0-21-2.3-22.3-3.6-.3-.2 2.2-3.3 5.6-6.7 24.6-25.3 47.9-67.5 57.4-103.7l1.2-4.5 2.9 6.3c1.6 3.5 4 9.8 5.4 14z"/><path d="M226.5 161.2c-.3.7-7.2 21.2-15.5 45.5L196.1 251h7.5l4.9-15 4.9-15h28.4l4.9 14.7 5 14.8 3.8.3c2.8.3 3.6 0 3.3-1-.3-.7-7.1-21.2-15.2-45.6-8.1-24.3-15.2-44.2-15.7-44.2s-1.2.6-1.4 1.2zm7.3 35.5l5 15.3h-10.9c-6 0-10.9-.3-10.9-.7 0-2.5 10.4-31.3 11-30.6.4.4 3 7.7 5.8 16zM269 205.5V251h6v-91h-6v45.5z"/></svg>